<svg xmlns="http://www.w3.org/2000/svg" viewBox="0 0 202.71 98.41"><defs><style>.cls-1{fill:#29abe2;}.cls-2{fill:#0071bc;}.cls-3{fill:#00215e;}</style></defs><title>logo</title><g id="Layer_2" data-name="Layer 2"><g id="WoUSO"><path class="cls-1" d="M86.88,60.74a11.53,11.53,0,1,0,0-23.07h-.27A37.7,37.7,0,0,0,83.74,31l.25-.24A11.53,11.53,0,1,0,67.69,14.41c-.21.21-.4.42-.59.64a37.59,37.59,0,0,0-6.41-2.44c0-.35.05-.71.05-1.08a11.53,11.53,0,1,0-22.92,1.85A37.7,37.7,0,0,0,32,16,11.53,11.53,0,1,0,16.49,32.37,37.61,37.61,0,0,0,14.25,38a11.53,11.53,0,1,0,.06,22.4A37.64,37.64,0,0,0,16.57,66,11.53,11.53,0,1,0,32.15,82.26a37.67,37.67,0,0,0,5.7,2.57,11.53,11.53,0,1,0,22.81.77A37.63,37.63,0,0,0,67,83.21c.23.27.46.53.72.79A11.53,11.53,0,0,0,84,67.69l-.33-.32a37.7,37.7,0,0,0,2.87-6.64ZM50.47,74.83A25.82,25.82,0,1,1,76.29,49,25.82,25.82,0,0,1,50.47,74.83Z"/><path class="cls-2" d="M92.85,12.12h3.64l1.68,18.45h.07L100,12.12h4.12l1.78,18.45H106l1.68-18.45h3.26l-2.44,24h-4.7l-1.72-16.19H102l-1.71,16.19h-5Z"/><path class="cls-2" d="M112.57,30.44V17.81c0-3.84,2-6,5.73-6s5.73,2.2,5.73,6V30.44c0,3.84-2,6-5.73,6S112.57,34.28,112.57,30.44Zm7.68.24V17.57c0-1.72-.75-2.37-2-2.37s-2,.65-2,2.37v13.1c0,1.72.75,2.37,2,2.37S120.26,32.39,120.26,30.68Z"/><path class="cls-2" d="M126.57,12.12h5.59c3.91,0,5.59,1.82,5.59,5.52v1.48c0,2.47-.79,4-2.47,4.73v.07c1.89.58,2.5,2.37,2.5,5.08v4.22a7.07,7.07,0,0,0,.41,2.92h-3.84a7.39,7.39,0,0,1-.34-3V28.79c0-2.23-.65-2.95-2.37-2.95h-1.3V36.13h-3.77Zm5.15,10.29c1.41,0,2.26-.62,2.26-2.54V18c0-1.71-.58-2.47-1.92-2.47h-1.71v6.86Z"/><path class="cls-2" d="M140.39,12.12h3.77V32.7h6.21v3.43h-10Z"/><path class="cls-2" d="M152.2,12.12H158c3.77,0,5.63,2.09,5.63,5.93V30.2c0,3.84-1.85,5.93-5.63,5.93H152.2Zm5.69,20.58c1.2,0,1.92-.62,1.92-2.33V17.88c0-1.72-.72-2.33-1.92-2.33H156V32.7Z"/><path class="cls-2" d="M171.34,30.44V17.81c0-3.84,2-6,5.73-6s5.73,2.2,5.73,6V30.44c0,3.84-2,6-5.73,6S171.34,34.28,171.34,30.44Zm7.68.24V17.57c0-1.72-.75-2.37-2-2.37s-2,.65-2,2.37v13.1c0,1.72.75,2.37,2,2.37S179,32.39,179,30.68Z"/><path class="cls-2" d="M185.33,12.12h10v3.43h-6.21v6.69H194v3.43h-4.87V36.13h-3.77Z"/><path class="cls-2" d="M122.7,77.79V39.09h8V78.37c0,3.62,1.52,4.93,4.06,4.93s4.06-1.3,4.06-4.93V39.09h7.68v38.7c0,8.12-4.06,12.76-11.89,12.76S122.7,85.91,122.7,77.79Z"/><path class="cls-2" d="M150.75,77.79v-2.9h7.54v3.48c0,3.62,1.59,4.93,4.13,4.93s4.13-1.3,4.13-5.07c0-4.2-1.59-6.89-6.81-11.45-6.67-5.87-8.84-10-8.84-15.8,0-8,4.13-12.61,11.89-12.61s11.6,4.64,11.6,12.76v2.1h-7.54V50.61c0-3.62-1.45-5-4-5s-4,1.38-4,4.86c0,3.7,1.67,6.38,6.89,10.94,6.67,5.87,8.77,9.93,8.77,16.24,0,8.26-4.2,12.9-12,12.9S150.75,85.91,150.75,77.79Z"/><path class="cls-2" d="M178.51,77.79V51.12c0-8.12,4.28-12.76,12.1-12.76s12.1,4.64,12.1,12.76V77.79c0,8.12-4.28,12.76-12.1,12.76S178.51,85.91,178.51,77.79Zm16.24.51V50.61c0-3.62-1.59-5-4.13-5s-4.13,1.38-4.13,5V78.3c0,3.62,1.59,5,4.13,5S194.74,81.92,194.74,78.3Z"/><path class="cls-2" d="M83.67,67.37a37.7,37.7,0,0,0,2.87-6.64h.34a11.57,11.57,0,0,0,1.23-.07l.39-.06c.27,0,.54-.08.8-.13l.44-.11c.24-.06.48-.12.71-.2l.43-.16.66-.26.42-.2c.21-.1.42-.21.63-.33L93,59l.59-.39.36-.27q.28-.22.56-.46l.32-.29c.18-.17.35-.34.51-.52l.17-.19L84.8,44.35s-5.56-4.91-10.12-4.91h0a28.41,28.41,0,0,1,1.6,9.27,25.83,25.83,0,0,1-51.13,5.35c-2,1.33-5.66,4.45-6.07,9.25L37.83,84.79l0,0a11.53,11.53,0,1,0,22.81.78A37.62,37.62,0,0,0,67,83.21c.23.27.46.53.72.79A11.53,11.53,0,0,0,84,67.69Z"/><path class="cls-2" d="M34.07,69h1.07c1.54,0,3.09-.08,4.66-.21q1.17-.1,2.36-.23c.79-.09,1.58-.2,2.37-.32a87.86,87.86,0,0,0,9.47-2,90.7,90.7,0,0,0,9.19-3q2.24-.85,4.38-1.83c1.43-.65,2.82-1.33,4.17-2.06l1-.57q1-.59,2-1.21l1.12-4.32q-.87.55-1.8,1.08c-1.25.71-2.56,1.39-3.91,2s-2.66,1.23-4.05,1.8-2.81,1.11-4.25,1.63c-2.89,1-5.87,2-8.89,2.74s-6.06,1.46-9.08,2c-.75.13-1.51.25-2.26.35s-1.5.21-2.24.3c-1.19.14-2.37.25-3.53.32l-.87.05c-1.47.07-2.91.1-4.31,0"/><path class="cls-3" d="M30.73,65.66a30,30,0,0,1-3.9-.37,14.18,14.18,0,0,1-3.47-1,4.56,4.56,0,0,1-2.23-1.84,3.09,3.09,0,0,1-.13-.29l0-.07s0,.07,0,0v0l0-.05-.06-.21a2.91,2.91,0,0,1-.08-.59,4.09,4.09,0,0,1,.2-1.33,9,9,0,0,1,1.32-2.48,19,19,0,0,1,1.7-2c.33-.35.67-.67,1-1l.18-.16L25,53.37l-.19.13c-.48.32-1,.69-1.53,1.11a18.4,18.4,0,0,0-2.08,1.89,10.24,10.24,0,0,0-1.9,2.76,5.78,5.78,0,0,0-.5,1.92,4.83,4.83,0,0,0,0,1.13l0,.22v.08l0,.07,0,.14a4.78,4.78,0,0,0,.73,1.56,6.38,6.38,0,0,0,.74.87,8.57,8.57,0,0,0,1.78,1.31,16.2,16.2,0,0,0,4.05,1.53,35.71,35.71,0,0,0,7.82.89"/><path class="cls-3" d="M75.93,53.3q.78-.49,1.51-1a24.71,24.71,0,0,0,2.93-2.37,10.89,10.89,0,0,0,2.08-2.6,3.66,3.66,0,0,0,.48-2.59l-.08-.3c0-.1-.08-.19-.12-.28L82.65,44l-.09-.13-.17-.27-.2-.25-.1-.12L82,43.12l-.23-.23c-.08-.08-.17-.14-.25-.21a9.85,9.85,0,0,0-2.19-1.28l-.55-.23-.54-.2c-.35-.13-.7-.23-1-.33-1-.29-1.83-.48-2.5-.61l-.12-.33a23.85,23.85,0,0,1,2.78.2c.35.05.72.1,1.11.18l.59.12.62.16a10.51,10.51,0,0,1,2.66,1.12,6.34,6.34,0,0,1,1.33,1.06l.29.36.15.19.13.2c.08.14.17.28.24.42l.19.46,0,.12,0,.13.06.2a4.86,4.86,0,0,1,.1.54,4.92,4.92,0,0,1,0,1,6.77,6.77,0,0,1-.5,2,12.74,12.74,0,0,1-2.23,3.42,25.4,25.4,0,0,1-3,2.89,42.06,42.06,0,0,1-4.33,3.06Z"/></g></g></svg>